<?xml version="1.0" encoding="UTF-8" standalone="no"?>
<!-- Created with Inkscape (http://www.inkscape.org/) -->

<svg
   xmlns:dc="http://purl.org/dc/elements/1.1/"
   xmlns:cc="http://creativecommons.org/ns#"
   xmlns:rdf="http://www.w3.org/1999/02/22-rdf-syntax-ns#"
   xmlns:svg="http://www.w3.org/2000/svg"
   xmlns="http://www.w3.org/2000/svg"
   xmlns:sodipodi="http://sodipodi.sourceforge.net/DTD/sodipodi-0.dtd"
   xmlns:inkscape="http://www.inkscape.org/namespaces/inkscape"
   width="210mm"
   height="297mm"
   viewBox="0 0 744.09448819 1052.3622047"
   id="svg2"
   version="1.1"
   inkscape:version="0.91 r13725"
   sodipodi:docname="xrandremote-indicator.svg">
  <defs
     id="defs4" />
  <sodipodi:namedview
     id="base"
     pagecolor="#ffffff"
     bordercolor="#666666"
     borderopacity="1.0"
     inkscape:pageopacity="0.0"
     inkscape:pageshadow="2"
     inkscape:zoom="2.871875"
     inkscape:cx="414.89191"
     inkscape:cy="774.76275"
     inkscape:document-units="px"
     inkscape:current-layer="layer1"
     showgrid="false"
     inkscape:window-width="1920"
     inkscape:window-height="1056"
     inkscape:window-x="0"
     inkscape:window-y="24"
     inkscape:window-maximized="1" />
  <metadata
     id="metadata7">
    <rdf:RDF>
      <cc:Work
         rdf:about="">
        <dc:format>image/svg+xml</dc:format>
        <dc:type
           rdf:resource="http://purl.org/dc/dcmitype/StillImage" />
        <dc:title></dc:title>
      </cc:Work>
    </rdf:RDF>
  </metadata>
  <g
     inkscape:label="Layer 1"
     inkscape:groupmode="layer"
     id="layer1">
    <g
       id="g4548"
       transform="matrix(0.49437449,0,0,0.49437449,134.36998,134.57559)">
      <g
         style="opacity:0"
         id="g4520">
        <rect
           style="fill:#000000"
           id="rect3344-6"
           width="44.5"
           height="25"
           x="243.5"
           y="253.65729" />
        <rect
           style="fill:#ffffff"
           id="rect3344-6-5"
           width="39.72826"
           height="21.5"
           x="245.88586"
           y="255.40729" />
        <g
           id="g3518"
           transform="matrix(0.23570226,-0.23570226,0.23570226,0.23570226,91.299776,302.32564)">
          <g
             id="g3510">
            <circle
               style="fill:#000000"
               id="path3410-1"
               cx="415.5"
               cy="272.65729"
               r="30" />
            <circle
               style="fill:#ffffff"
               id="path3410-3-2"
               cx="412.5"
               cy="272.65729"
               r="27" />
            <circle
               style="fill:#000000"
               id="path3410"
               cx="405.5"
               cy="272.65729"
               r="20" />
            <circle
               style="fill:#ffffff"
               id="path3410-3"
               cx="402.5"
               cy="272.65729"
               r="17" />
            <circle
               style="fill:#000000"
               id="path3410-2"
               cx="395.5"
               cy="272.65729"
               r="10" />
            <circle
               style="fill:#ffffff"
               id="path3410-3-9"
               cx="392.75"
               cy="272.65729"
               r="7.25" />
          </g>
        </g>
      </g>
      <path
         inkscape:connector-curvature="0"
         id="path4534"
         d="m 243.52013,266.14784 0,-12.49184 22.2198,0 22.21981,0 0,12.49184 0,12.49184 -22.21981,0 -22.2198,0 0,-12.49184 z m 10.70729,12.1232 c 3.18538,-0.53209 5.83021,-2.68238 6.98806,-5.68141 0.59903,-1.55159 0.74562,-3.38901 0.40456,-5.07073 -0.48841,-2.4082 -2.01953,-4.56573 -4.17196,-5.87876 -2.59919,-1.58558 -5.97697,-1.71161 -8.71964,-0.32536 -3.13322,1.58366 -5.0477,4.81012 -4.93393,8.31511 0.0274,0.8429 0.098,1.34261 0.29472,2.08378 0.28896,1.08892 0.83002,2.19579 1.50774,3.08448 l 0.27354,0.35869 0,0.89267 0,0.89267 1.00815,0 1.00814,0 0.33147,0.19433 c 1.1438,0.67056 2.29609,1.0404 3.78935,1.21622 0.33273,0.0392 1.82496,-0.0157 2.2198,-0.0817 z m 31.41467,-12.11232 0.011,-10.7617 -19.89128,0 -19.89127,0 0,3.3999 0,3.3999 0.48966,-0.495 c 0.86696,-0.87642 1.70228,-1.48207 2.74882,-1.99304 2.80852,-1.37124 6.01453,-1.37012 8.8024,0.003 1.02462,0.50468 1.77976,1.05336 2.65222,1.92706 1.7515,1.75399 2.7452,3.96446 2.88662,6.42127 0.16552,2.87544 -0.86208,5.59609 -2.87756,7.61864 -0.38592,0.38726 -1.05788,0.96268 -1.38375,1.18494 -0.10208,0.0696 0.66512,0.0734 13.1669,0.0653 l 13.2753,-0.009 0.011,-10.7617 0,0 z"
         style="fill:#dfdbd2;fill-opacity:1" />
      <path
         inkscape:connector-curvature="0"
         id="path4536"
         d="m 250.05113,277.57077 c -0.49142,-0.0859 -1.51591,-0.39159 -1.4691,-0.4384 0.008,-0.008 0.2044,0.033 0.43587,0.0917 2.02419,0.51347 4.11364,-0.0918 5.54803,-1.60712 0.76533,-0.80851 1.2726,-1.81699 1.46804,-2.91855 0.0907,-0.51101 0.0907,-1.44764 0,-1.95865 -0.36402,-2.0517 -1.85312,-3.77796 -3.80872,-4.4153 -1.15897,-0.37772 -2.49843,-0.36995 -3.6377,0.0211 -1.88307,0.64635 -3.32486,2.28793 -3.71406,4.22871 -0.17843,0.88976 -0.1587,1.69675 0.0628,2.57007 0.0584,0.23012 0.0989,0.42563 0.0901,0.43446 -0.0157,0.0157 -0.19492,-0.47106 -0.28399,-0.77157 -0.26068,-0.87956 -0.3063,-2.15755 -0.11122,-3.11609 0.44002,-2.16216 2.00817,-4.03452 4.06024,-4.84792 3.75452,-1.48822 7.97431,0.70064 8.90758,4.62047 0.4391,1.84429 0.0889,3.72356 -0.99212,5.32396 -0.36764,0.54427 -1.19359,1.36096 -1.75024,1.73063 -0.71193,0.47279 -1.46911,0.79766 -2.32285,0.99665 -0.5067,0.1181 -1.94164,0.15036 -2.48268,0.0558 z"
         style="fill:#dfdbd2;fill-opacity:1" />
      <path
         inkscape:connector-curvature="0"
         id="path4538"
         d="m 248.19913,276.63113 c -0.26713,-0.0493 -0.77474,-0.21272 -0.74698,-0.24049 0.0112,-0.0112 0.13353,6.6e-4 0.27193,0.0262 1.03551,0.19143 2.12623,-0.3644 2.5831,-1.31633 0.47109,-0.98158 0.29913,-2.03985 -0.45408,-2.79437 -0.95427,-0.95592 -2.49249,-0.95411 -3.43958,0.004 -0.31431,0.31799 -0.5149,0.67787 -0.63113,1.13231 -0.0971,0.37964 -0.10696,0.62803 -0.0395,0.99318 0.0256,0.1384 0.0368,0.26135 0.0249,0.27322 -0.0119,0.0119 -0.074,-0.14185 -0.13813,-0.34158 -0.151,-0.47052 -0.19096,-1.1728 -0.0929,-1.63316 0.0796,-0.37369 0.22828,-0.75379 0.42706,-1.09171 0.18772,-0.31911 0.77314,-0.90453 1.09225,-1.09225 1.30168,-0.76572 2.85154,-0.61714 3.95546,0.37921 1.16866,1.05479 1.41625,2.78316 0.59796,4.17421 -0.18772,0.31911 -0.77314,0.90453 -1.09225,1.09225 -0.70281,0.41344 -1.56207,0.57475 -2.31818,0.43521 z"
         style="fill:#dfdbd2;fill-opacity:1" />
      <path
         inkscape:connector-curvature="0"
         id="path4540"
         d="m 259.52332,276.88214 -0.29714,-0.0249 0.38419,-0.31095 c 1.64336,-1.33003 2.73559,-2.87275 3.36142,-4.7478 0.3403,-1.0196 0.48733,-1.96915 0.48689,-3.14457 -8.5e-4,-2.26273 -0.6446,-4.19546 -2.00107,-6.00778 -0.31595,-0.42212 -1.18335,-1.31779 -1.67138,-1.72583 -1.27712,-1.06782 -2.87359,-1.79664 -4.62301,-2.1105 -0.49351,-0.0885 -0.70491,-0.10151 -1.65397,-0.10151 -0.94906,0 -1.16039,0.013 -1.65344,0.10148 -1.66884,0.29959 -3.26726,1.00892 -4.52719,2.00904 -0.19151,0.15202 -0.59793,0.52096 -0.90316,0.81988 l -0.55495,0.54348 0,-3.38065 0,-3.38064 19.89119,0 19.89118,0 0,3.17014 c 0,1.74358 -0.013,6.58145 -0.029,10.75082 l -0.029,7.58067 -12.88723,-0.008 c -7.08799,-0.004 -13.02096,-0.0189 -13.18438,-0.0326 z"
         style="opacity:0;fill:#dfdbd2;fill-opacity:1" />
      <path
         inkscape:connector-curvature="0"
         id="path4542"
         d="m 251.42002,278.25307 c -1.31417,-0.23 -2.29489,-0.58243 -3.29187,-1.18297 l -0.24509,-0.14763 -1.00627,0 -1.00628,0 0,-0.89344 0,-0.89345 -0.25621,-0.33615 c -0.26853,-0.3523 -0.65622,-0.9677 -0.84245,-1.33724 -0.36702,-0.7283 -0.70657,-1.73734 -0.84084,-2.49871 -0.10448,-0.59249 -0.14835,-1.56398 -0.10139,-2.24558 0.29306,-4.25362 3.54437,-7.71573 7.76562,-8.26909 0.57925,-0.0759 1.7025,-0.0867 2.24159,-0.0214 2.05656,0.24892 3.86577,1.12368 5.30898,2.56689 1.38195,1.38195 2.26349,3.12565 2.55254,5.04897 0.10193,0.67825 0.10185,1.93428 -1.7e-4,2.61153 -0.34645,2.29971 -1.49585,4.30212 -3.29838,5.74623 -1.06004,0.84926 -2.46173,1.51112 -3.76981,1.78007 -0.93949,0.19316 -2.33832,0.22453 -3.20996,0.072 l -1e-5,0 z m 1.21872,-0.75678 c 0.81694,-0.20914 1.56083,-0.53701 2.25279,-0.99289 0.43048,-0.28361 1.47671,-1.33693 1.76699,-1.77897 1.42345,-2.16757 1.5028,-4.88665 0.20686,-7.08865 -0.93819,-1.59411 -2.58759,-2.76632 -4.41648,-3.13875 -0.77413,-0.15763 -1.86596,-0.15777 -2.62618,-3.3e-4 -1.23708,0.25621 -2.42147,0.89259 -3.31981,1.78377 -0.68222,0.67679 -1.20254,1.45228 -1.5332,2.28509 -0.37521,0.94504 -0.47013,1.53327 -0.43536,2.69803 0.0257,0.86246 0.077,1.17915 0.29901,1.84713 0.19538,0.58788 0.25707,0.61652 0.11605,0.0539 -0.17784,-0.70953 -0.21737,-1.653 -0.0997,-2.37921 0.28747,-1.77386 1.4617,-3.3453 3.10817,-4.15956 1.26066,-0.62346 2.8419,-0.73475 4.22973,-0.2977 1.05737,0.33299 2.07125,1.05695 2.76102,1.97151 0.3656,0.48473 0.81242,1.38352 0.95311,1.91719 0.28045,1.06375 0.24872,2.26037 -0.0872,3.28947 -0.52711,1.61476 -1.86253,2.97706 -3.49208,3.56239 -0.93095,0.33439 -2.07927,0.40284 -3.11719,0.18582 -0.30843,-0.0645 -0.56919,-0.10884 -0.57948,-0.0985 -0.0376,0.0376 1.01836,0.35107 1.46669,0.43542 0.0599,0.0113 0.57889,0.0145 1.15343,0.007 0.88088,-0.0111 1.09919,-0.0272 1.39282,-0.10234 z m -3.03311,-0.92426 c 0.18399,-0.0464 0.50101,-0.16599 0.70449,-0.26583 0.3047,-0.1495 0.44337,-0.25512 0.78603,-0.59873 0.47018,-0.47146 0.62716,-0.71899 0.83107,-1.31039 0.13304,-0.38585 0.1423,-0.45065 0.14292,-1.00018 7.5e-4,-0.66224 -0.0589,-0.95039 -0.3021,-1.45938 -0.31645,-0.6623 -0.84012,-1.1863 -1.52321,-1.52415 -0.5512,-0.27261 -0.8542,-0.34308 -1.45811,-0.3391 -0.96871,0.006 -1.62067,0.28359 -2.33305,0.99202 -0.37156,0.36948 -0.46762,0.49495 -0.61984,0.80957 -0.3992,0.82507 -0.46514,1.68475 -0.19512,2.54389 0.10324,0.32848 0.15837,0.3492 0.11582,0.0435 -0.16845,-1.20997 0.45947,-2.30567 1.55233,-2.70876 0.2911,-0.10737 0.38297,-0.12018 0.84874,-0.11837 0.46219,0.002 0.55677,0.0156 0.82165,0.11983 0.3839,0.15108 0.80886,0.45496 1.03644,0.74116 0.37406,0.4704 0.58995,1.14892 0.53555,1.68322 -0.12514,1.22939 -1.05359,2.16035 -2.2413,2.24737 -0.17954,0.0131 -0.43906,0.005 -0.57671,-0.017 -0.13765,-0.0225 -0.25027,-0.0249 -0.25027,-0.005 0,0.0448 0.54064,0.21078 0.84069,0.25803 0.31392,0.0494 0.88666,0.009 1.28398,-0.0915 z"
         style="opacity:0;fill:#dfdbd2;fill-opacity:1" />
      <path
         inkscape:connector-curvature="0"
         id="path4544"
         d="m 251.42002,278.25307 c -1.31417,-0.23 -2.29489,-0.58243 -3.29187,-1.18297 l -0.24509,-0.14763 -1.00627,0 -1.00628,0 0,-0.89344 0,-0.89345 -0.25621,-0.33615 c -0.26853,-0.3523 -0.65622,-0.9677 -0.84245,-1.33724 -0.36702,-0.7283 -0.70657,-1.73734 -0.84084,-2.49871 -0.10448,-0.59249 -0.14835,-1.56398 -0.10139,-2.24558 0.29306,-4.25362 3.54437,-7.71573 7.76562,-8.26909 0.57925,-0.0759 1.7025,-0.0867 2.24159,-0.0214 2.05656,0.24892 3.86577,1.12368 5.30898,2.56689 1.38195,1.38195 2.26349,3.12565 2.55254,5.04897 0.10193,0.67825 0.10185,1.93428 -1.7e-4,2.61153 -0.34645,2.29971 -1.49585,4.30212 -3.29838,5.74623 -1.06004,0.84926 -2.46173,1.51112 -3.76981,1.78007 -0.93949,0.19316 -2.33832,0.22453 -3.20996,0.072 l -1e-5,0 z m 1.21872,-0.75678 c 0.81694,-0.20914 1.56083,-0.53701 2.25279,-0.99289 0.43048,-0.28361 1.47671,-1.33693 1.76699,-1.77897 1.42345,-2.16757 1.5028,-4.88665 0.20686,-7.08865 -0.93819,-1.59411 -2.58759,-2.76632 -4.41648,-3.13875 -0.77413,-0.15763 -1.86596,-0.15777 -2.62618,-3.3e-4 -1.23708,0.25621 -2.42147,0.89259 -3.31981,1.78377 -0.68222,0.67679 -1.20254,1.45228 -1.5332,2.28509 -0.37521,0.94504 -0.47013,1.53327 -0.43536,2.69803 0.0257,0.86246 0.077,1.17915 0.29901,1.84713 0.19538,0.58788 0.25707,0.61652 0.11605,0.0539 -0.17784,-0.70953 -0.21737,-1.653 -0.0997,-2.37921 0.28747,-1.77386 1.4617,-3.3453 3.10817,-4.15956 1.26066,-0.62346 2.8419,-0.73475 4.22973,-0.2977 1.05737,0.33299 2.07125,1.05695 2.76102,1.97151 0.3656,0.48473 0.81242,1.38352 0.95311,1.91719 0.28045,1.06375 0.24872,2.26037 -0.0872,3.28947 -0.52711,1.61476 -1.86253,2.97706 -3.49208,3.56239 -0.93095,0.33439 -2.07927,0.40284 -3.11719,0.18582 -0.30843,-0.0645 -0.56919,-0.10884 -0.57948,-0.0985 -0.0376,0.0376 1.01836,0.35107 1.46669,0.43542 0.0599,0.0113 0.57889,0.0145 1.15343,0.007 0.88088,-0.0111 1.09919,-0.0272 1.39282,-0.10234 z m -3.03311,-0.92426 c 0.18399,-0.0464 0.50101,-0.16599 0.70449,-0.26583 0.3047,-0.1495 0.44337,-0.25512 0.78603,-0.59873 0.47018,-0.47146 0.62716,-0.71899 0.83107,-1.31039 0.13304,-0.38585 0.1423,-0.45065 0.14292,-1.00018 7.5e-4,-0.66224 -0.0589,-0.95039 -0.3021,-1.45938 -0.31645,-0.6623 -0.84012,-1.1863 -1.52321,-1.52415 -0.5512,-0.27261 -0.8542,-0.34308 -1.45811,-0.3391 -0.96871,0.006 -1.62067,0.28359 -2.33305,0.99202 -0.37156,0.36948 -0.46762,0.49495 -0.61984,0.80957 -0.3992,0.82507 -0.46514,1.68475 -0.19512,2.54389 0.10324,0.32848 0.15837,0.3492 0.11582,0.0435 -0.16845,-1.20997 0.45947,-2.30567 1.55233,-2.70876 0.2911,-0.10737 0.38297,-0.12018 0.84874,-0.11837 0.46219,0.002 0.55677,0.0156 0.82165,0.11983 0.3839,0.15108 0.80886,0.45496 1.03644,0.74116 0.37406,0.4704 0.58995,1.14892 0.53555,1.68322 -0.12514,1.22939 -1.05359,2.16035 -2.2413,2.24737 -0.17954,0.0131 -0.43906,0.005 -0.57671,-0.017 -0.13765,-0.0225 -0.25027,-0.0249 -0.25027,-0.005 0,0.0448 0.54064,0.21078 0.84069,0.25803 0.31392,0.0494 0.88666,0.009 1.28398,-0.0915 z"
         style="opacity:0;fill:#dfdbd2;fill-opacity:1" />
      <path
         inkscape:connector-curvature="0"
         id="path4546"
         d="m 251.42002,278.25307 c -1.31417,-0.23 -2.29489,-0.58243 -3.29187,-1.18297 l -0.24509,-0.14763 -1.00627,0 -1.00628,0 0,-0.89344 0,-0.89345 -0.25621,-0.33615 c -0.26853,-0.3523 -0.65622,-0.9677 -0.84245,-1.33724 -0.36702,-0.7283 -0.70657,-1.73734 -0.84084,-2.49871 -0.10448,-0.59249 -0.14835,-1.56398 -0.10139,-2.24558 0.29306,-4.25362 3.54437,-7.71573 7.76562,-8.26909 0.57925,-0.0759 1.7025,-0.0867 2.24159,-0.0214 2.05656,0.24892 3.86577,1.12368 5.30898,2.56689 1.38195,1.38195 2.26349,3.12565 2.55254,5.04897 0.10193,0.67825 0.10185,1.93428 -1.7e-4,2.61153 -0.34645,2.29971 -1.49585,4.30212 -3.29838,5.74623 -1.06004,0.84926 -2.46173,1.51112 -3.76981,1.78007 -0.93949,0.19316 -2.33832,0.22453 -3.20996,0.072 l -1e-5,0 z m 1.21872,-0.75678 c 0.81694,-0.20914 1.56083,-0.53701 2.25279,-0.99289 0.43048,-0.28361 1.47671,-1.33693 1.76699,-1.77897 1.42345,-2.16757 1.5028,-4.88665 0.20686,-7.08865 -0.93819,-1.59411 -2.58759,-2.76632 -4.41648,-3.13875 -0.77413,-0.15763 -1.86596,-0.15777 -2.62618,-3.3e-4 -1.23708,0.25621 -2.42147,0.89259 -3.31981,1.78377 -0.68222,0.67679 -1.20254,1.45228 -1.5332,2.28509 -0.37521,0.94504 -0.47013,1.53327 -0.43536,2.69803 0.0257,0.86246 0.077,1.17915 0.29901,1.84713 0.19538,0.58788 0.25707,0.61652 0.11605,0.0539 -0.17784,-0.70953 -0.21737,-1.653 -0.0997,-2.37921 0.28747,-1.77386 1.4617,-3.3453 3.10817,-4.15956 1.26066,-0.62346 2.8419,-0.73475 4.22973,-0.2977 1.05737,0.33299 2.07125,1.05695 2.76102,1.97151 0.3656,0.48473 0.81242,1.38352 0.95311,1.91719 0.28045,1.06375 0.24872,2.26037 -0.0872,3.28947 -0.52711,1.61476 -1.86253,2.97706 -3.49208,3.56239 -0.93095,0.33439 -2.07927,0.40284 -3.11719,0.18582 -0.30843,-0.0645 -0.56919,-0.10884 -0.57948,-0.0985 -0.0376,0.0376 1.01836,0.35107 1.46669,0.43542 0.0599,0.0113 0.57889,0.0145 1.15343,0.007 0.88088,-0.0111 1.09919,-0.0272 1.39282,-0.10234 z m -3.03311,-0.92426 c 0.18399,-0.0464 0.50101,-0.16599 0.70449,-0.26583 0.3047,-0.1495 0.44337,-0.25512 0.78603,-0.59873 0.47018,-0.47146 0.62716,-0.71899 0.83107,-1.31039 0.13304,-0.38585 0.1423,-0.45065 0.14292,-1.00018 7.5e-4,-0.66224 -0.0589,-0.95039 -0.3021,-1.45938 -0.31645,-0.6623 -0.84012,-1.1863 -1.52321,-1.52415 -0.5512,-0.27261 -0.8542,-0.34308 -1.45811,-0.3391 -0.96871,0.006 -1.62067,0.28359 -2.33305,0.99202 -0.37156,0.36948 -0.46762,0.49495 -0.61984,0.80957 -0.3992,0.82507 -0.46514,1.68475 -0.19512,2.54389 0.10324,0.32848 0.15837,0.3492 0.11582,0.0435 -0.16845,-1.20997 0.45947,-2.30567 1.55233,-2.70876 0.2911,-0.10737 0.38297,-0.12018 0.84874,-0.11837 0.46219,0.002 0.55677,0.0156 0.82165,0.11983 0.3839,0.15108 0.80886,0.45496 1.03644,0.74116 0.37406,0.4704 0.58995,1.14892 0.53555,1.68322 -0.12514,1.22939 -1.05359,2.16035 -2.2413,2.24737 -0.17954,0.0131 -0.43906,0.005 -0.57671,-0.017 -0.13765,-0.0225 -0.25027,-0.0249 -0.25027,-0.005 0,0.0448 0.54064,0.21078 0.84069,0.25803 0.31392,0.0494 0.88666,0.009 1.28398,-0.0915 z"
         style="opacity:0;fill:#dfdbd2;fill-opacity:1" />
    </g>
  </g>
</svg>
